<svg xmlns="http://www.w3.org/2000/svg" width="144" height="144" viewBox="0 0 144 144" class="icon stroked icon-stopwatch"> <path fill="none" stroke="#666" stroke-width="2px" class="long"  d="m 40.3,43.15 8.53,-7.08 3.4,4.1 -8.54,7.08 z m 24.12,-13.29 15.3,0 0,5.33 -15.3,0 z m 13.62,41.57 12.58,0.36 c 0.93,-0.13 1.1,0.64 0,0.64 l -12.58,0.3 M 72.47,66 72,49.54 71.55,66.03 m 6.46,5.95 c 0,3.35 -2.65,6.09 -6.03,6.03 -3.31,0 -6.01,-2.68 -6.01,-6.01 0,-3.33 2.7,-6.02 6.03,-6.03 3.33,0 6.05,2.72 6.01,6.01 z m 25.99,0 A 32,32 0 0 1 71.98,104 32,32 0 0 1 39.99,71.99 a 32,32 0 0 1 32,-32 32,32 0 0 1 32.01,32 z" /><path fill="none" stroke="#666" stroke-width="2px" class="short"  d="m 74.83,35.31 0,4.65 m -5.5,0 0,-4.65 m -18.55,6.1 2.96,3.55 m -5.43,4.46 -2.95,-3.54 M 59.1,49.65 57.69,47.2 m 28.62,49.57 -1.44,-2.5 m -38.66,-22.28 -2.82,0 m 57.21,0 -2.86,0 M 49.66,84.88 47.22,86.29 M 96.78,57.68 94.29,59.12 M 59.1,94.32 57.69,96.77 M 86.31,47.2 84.87,49.7 M 72,97.78 l 0,2.82 m 0,-57.23 0,2.88 M 49.66,59.09 47.22,57.68 m 49.56,28.61 -2.49,-1.44"  /></svg>