<svg xmlns="http://www.w3.org/2000/svg" width="144" height="144" viewBox="0 0 144 144" class="icon stroked icon-rocket icon-launch"><path fill="none" stroke="#666" stroke-width="2px" class="long"  d="m 68.34,86.86 1.85,22.44 c 7.51,-7 10.8,-23.1 10.71,-30.27 M 53.58,72.09 C 59.14,68.76 62,63.97 61.41,59.55 76.08,39.16 93.31,31.14 111.3,29.04 109.2,47.05 101.2,64.28 80.81,78.94 76.38,78.36 71.6,81.22 68.26,86.77 Z m 0,0 -22.44,-1.8 C 38.18,62.74 54.25,59.45 61.41,59.55 m 27.83,-0.31 a 5.75,5.75 0 0 1 -8.14,0 5.75,5.75 0 0 1 0,-8.14 5.75,5.75 0 0 1 8.14,0 5.75,5.75 0 0 1 0,8.13 z M 53.58,72.09 36.07,94.59 51.95,83.13 47.96,91.54 53.97,89.94 36.85,111.5 68.26,86.77 Z"  ></path> </svg>